<?xml version="1.0" encoding="UTF-8" standalone="no"?>
<!-- Created with Inkscape (http://www.inkscape.org/) -->

<svg
   width="256mm"
   height="96mm"
   viewBox="0 0 256 96"
   version="1.1"
   id="svg5"
   xmlns="http://www.w3.org/2000/svg"
   xmlns:svg="http://www.w3.org/2000/svg">
  <defs
     id="defs2" />
  <g
     id="layer1">
    <rect
       style="fill:none;fill-opacity:1;fill-rule:evenodd;stroke:#eeeeee;stroke-width:8;stroke-linejoin:round;stroke-miterlimit:4;stroke-dasharray:none;stroke-opacity:1"
       id="rect31"
       width="243.256"
       height="81.771629"
       x="6.3718634"
       y="7.6505895"
       ry="26.550287" />
    <g
       aria-label="SHIFTY"
       id="text12620"
       style="font-size:50.8px;font-family:'Maple Mono';-inkscape-font-specification:'Maple Mono';letter-spacing:0px;stroke-width:0.265">
      <path
         d="m 85.016593,62.963606 q -3.7084,0 -6.5278,-0.8636 -2.794,-0.8636 -4.572,-2.3368 -2.3876,-1.778 -2.3876,-4.2672 0,-1.143 0.7874,-2.1844 0.8128,-1.0668 2.5654,-1.0668 1.4732,0 2.4892,0.635 1.016,0.635 1.905,1.4478 1.0414,1.0668 2.413,1.905 1.3716,0.8128 3.4798,0.8128 2.1336,0 3.556,-0.8636 1.4478,-0.889 1.4478,-2.4384 0,-1.5748 -1.6256,-2.3622 -1.6256,-0.7874 -4.953,-1.5494 -6.0452,-1.346199 -8.7122,-3.987799 -2.6416,-2.667 -2.6416,-6.35 0,-2.6924 1.7018,-4.6736 1.7272,-1.9812 4.699,-3.048 2.9972,-1.0922 6.8072,-1.0922 2.794,0 5.3848,0.7366 2.6162,0.7112 4.3942,2.1082 1.0414,0.7366 1.676399,1.7272 0.6604,0.9906 0.6604,2.2352 0,1.4732 -0.9144,2.3368 -0.914399,0.8382 -2.387599,0.8382 -1.4732,0 -2.5146,-0.7366 -1.016,-0.7366 -1.6764,-1.3716 -0.7366,-0.8128 -1.9812,-1.3716 -1.2446,-0.5842 -3.0226,-0.5842 -2.0066,0 -3.2004,0.762 -1.1684,0.762 -1.1684,2.0066 0,1.3208 1.5748,2.2606 1.5748,0.9144 4.9022,1.7526 3.3528,0.7874 5.9182,2.0066 2.5908,1.1938 4.063999,3.0734 1.4732,1.879599 1.4732,4.749799 0,2.9718 -1.7272,5.1816 -1.727199,2.1844 -4.800599,3.3782 -3.0734,1.1938 -7.0866,1.1938 z"
         style="-inkscape-font-specification:'Sono Sans';fill:#eeeeee"
         id="path841" />
      <path
         d="m 120.01772,35.430007 q 0,-4.699 4.1656,-4.699 4.1656,0 4.1656,4.699 v 22.783799 q 0,4.6482 -4.1656,4.6482 -4.1656,0 -4.1656,-4.6482 v -8.763 h -9.1186 v 8.763 q 0,4.6482 -4.1656,4.6482 -4.1656,0 -4.1656,-4.6482 V 35.430007 q 0,-4.699 4.1656,-4.699 4.1656,0 4.1656,4.699 v 8.128 h 9.1186 z"
         style="-inkscape-font-specification:'Sono Sans';fill:#eeeeee"
         id="path843" />
      <path
         d="m 136.45149,62.430206 q -1.8034,0 -2.8194,-0.762 -1.016,-0.762 -1.016,-2.1844 0,-1.4478 1.016,-2.2098 1.016,-0.762 2.8194,-0.762 h 3.1242 V 36.903207 h -3.1242 q -1.8034,0 -2.8194,-0.762 -1.016,-0.762 -1.016,-2.2098 0,-1.4224 1.016,-2.1844 1.016,-0.762 2.8194,-0.762 h 14.1224 q 1.8288,0 2.8194,0.762 1.016,0.762 1.016,2.1844 0,1.4478 -1.016,2.2098 -0.9906,0.762 -2.8194,0.762 h -3.0734 v 19.608799 h 3.0734 q 1.8288,0 2.8194,0.762 1.016,0.762 1.016,2.2098 0,1.4224 -1.016,2.1844 -0.9906,0.762 -2.8194,0.762 z"
         style="-inkscape-font-specification:'Sono Sans';fill:#eeeeee"
         id="path845" />
      <path
         d="m 180.74901,33.931407 q 0,1.4478 -1.143,2.2098 -1.143,0.762 -3.1242,0.762 h -9.4742 v 9.3472 h 7.6708 q 3.8862,0 3.8862,2.971799 0,2.9464 -3.8862,2.9464 h -7.6708 v 6.0452 q 0,4.6482 -4.1656,4.6482 -4.1656,0 -4.1656,-4.6482 V 35.658607 q 0,-4.6736 4.6736,-4.6736 h 13.1318 q 1.9812,0 3.1242,0.762 1.143,0.762 1.143,2.1844 z"
         style="-inkscape-font-specification:'Sono Sans';fill:#eeeeee"
         id="path847" />
      <path
         d="m 205.81873,30.985007 q 4.2672,0 4.2672,2.9464 0,1.4478 -1.1684,2.2098 -1.1684,0.762 -2.8702,0.762 h -5.1308 v 21.310599 q 0,4.6482 -4.1656,4.6482 -4.1656,0 -4.1656,-4.6482 V 36.903207 h -4.6482 q -2.1082,0 -3.302,-0.762 -1.1684,-0.762 -1.1684,-2.2098 0,-1.4224 1.1684,-2.1844 1.1938,-0.762 3.302,-0.762 z"
         style="-inkscape-font-specification:'Sono Sans';fill:#eeeeee"
         id="path849" />
      <path
         d="m 224.56389,62.912806 q -4.1656,0 -4.1656,-4.6482 v -8.2804 q -0.6858,-0.7366 -1.397,-1.981199 l -6.35,-11.049 q -0.7874,-1.2954 -0.7874,-2.7432 0,-1.2954 0.9144,-2.413 0.9398,-1.1176 2.8448,-1.1176 1.4986,0 2.3622,0.8382 0.889,0.8382 1.8034,2.7178 l 4.7752,9.398 4.826,-9.4742 q 0.889,-1.8288 1.8542,-2.6416 0.9652,-0.8382 2.4384,-0.8382 1.8796,0 2.7178,1.0922 0.8382,1.0922 0.8382,2.3876 0,1.4478 -0.8128,2.794 l -6.35,11.049 q -0.3556,0.5842 -0.6858,1.066799 -0.3048,0.4572 -0.6858,0.8636 v 8.3312 q 0,4.6482 -4.1402,4.6482 z"
         style="-inkscape-font-specification:'Sono Sans';fill:#eeeeee"
         id="path851" />
      <path
         d="m 85.016593,62.963606 q -3.7084,0 -6.5278,-0.8636 -2.794,-0.8636 -4.572,-2.3368 -2.3876,-1.778 -2.3876,-4.2672 0,-1.143 0.7874,-2.1844 0.8128,-1.0668 2.5654,-1.0668 1.4732,0 2.4892,0.635 1.016,0.635 1.905,1.4478 1.0414,1.0668 2.413,1.905 1.3716,0.8128 3.4798,0.8128 2.1336,0 3.556,-0.8636 1.4478,-0.889 1.4478,-2.4384 0,-1.5748 -1.6256,-2.3622 -1.6256,-0.7874 -4.953,-1.5494 -6.0452,-1.346199 -8.7122,-3.987799 -2.6416,-2.667 -2.6416,-6.35 0,-2.6924 1.7018,-4.6736 1.7272,-1.9812 4.699,-3.048 2.9972,-1.0922 6.8072,-1.0922 2.794,0 5.3848,0.7366 2.6162,0.7112 4.3942,2.1082 1.0414,0.7366 1.676399,1.7272 0.6604,0.9906 0.6604,2.2352 0,1.4732 -0.9144,2.3368 -0.914399,0.8382 -2.387599,0.8382 -1.4732,0 -2.5146,-0.7366 -1.016,-0.7366 -1.6764,-1.3716 -0.7366,-0.8128 -1.9812,-1.3716 -1.2446,-0.5842 -3.0226,-0.5842 -2.0066,0 -3.2004,0.762 -1.1684,0.762 -1.1684,2.0066 0,1.3208 1.5748,2.2606 1.5748,0.9144 4.9022,1.7526 3.3528,0.7874 5.9182,2.0066 2.5908,1.1938 4.063999,3.0734 1.4732,1.879599 1.4732,4.749799 0,2.9718 -1.7272,5.1816 -1.727199,2.1844 -4.800599,3.3782 -3.0734,1.1938 -7.0866,1.1938 z"
         style="-inkscape-font-specification:'Sono Sans';fill:#eeeeee"
         id="path1256" />
      <path
         d="m 120.01772,35.430007 q 0,-4.699 4.1656,-4.699 4.1656,0 4.1656,4.699 v 22.783799 q 0,4.6482 -4.1656,4.6482 -4.1656,0 -4.1656,-4.6482 v -8.763 h -9.1186 v 8.763 q 0,4.6482 -4.1656,4.6482 -4.1656,0 -4.1656,-4.6482 V 35.430007 q 0,-4.699 4.1656,-4.699 4.1656,0 4.1656,4.699 v 8.128 h 9.1186 z"
         style="-inkscape-font-specification:'Sono Sans';fill:#eeeeee"
         id="path1258" />
      <path
         d="m 136.45149,62.430206 q -1.8034,0 -2.8194,-0.762 -1.016,-0.762 -1.016,-2.1844 0,-1.4478 1.016,-2.2098 1.016,-0.762 2.8194,-0.762 h 3.1242 V 36.903207 h -3.1242 q -1.8034,0 -2.8194,-0.762 -1.016,-0.762 -1.016,-2.2098 0,-1.4224 1.016,-2.1844 1.016,-0.762 2.8194,-0.762 h 14.1224 q 1.8288,0 2.8194,0.762 1.016,0.762 1.016,2.1844 0,1.4478 -1.016,2.2098 -0.9906,0.762 -2.8194,0.762 h -3.0734 v 19.608799 h 3.0734 q 1.8288,0 2.8194,0.762 1.016,0.762 1.016,2.2098 0,1.4224 -1.016,2.1844 -0.9906,0.762 -2.8194,0.762 z"
         style="-inkscape-font-specification:'Sono Sans';fill:#eeeeee"
         id="path1260" />
      <path
         d="m 180.74901,33.931407 q 0,1.4478 -1.143,2.2098 -1.143,0.762 -3.1242,0.762 h -9.4742 v 9.3472 h 7.6708 q 3.8862,0 3.8862,2.971799 0,2.9464 -3.8862,2.9464 h -7.6708 v 6.0452 q 0,4.6482 -4.1656,4.6482 -4.1656,0 -4.1656,-4.6482 V 35.658607 q 0,-4.6736 4.6736,-4.6736 h 13.1318 q 1.9812,0 3.1242,0.762 1.143,0.762 1.143,2.1844 z"
         style="-inkscape-font-specification:'Sono Sans';fill:#eeeeee"
         id="path1262" />
      <path
         d="m 205.81873,30.985007 q 4.2672,0 4.2672,2.9464 0,1.4478 -1.1684,2.2098 -1.1684,0.762 -2.8702,0.762 h -5.1308 v 21.310599 q 0,4.6482 -4.1656,4.6482 -4.1656,0 -4.1656,-4.6482 V 36.903207 h -4.6482 q -2.1082,0 -3.302,-0.762 -1.1684,-0.762 -1.1684,-2.2098 0,-1.4224 1.1684,-2.1844 1.1938,-0.762 3.302,-0.762 z"
         style="-inkscape-font-specification:'Sono Sans';fill:#eeeeee"
         id="path1264" />
      <path
         d="m 224.56389,62.912806 q -4.1656,0 -4.1656,-4.6482 v -8.2804 q -0.6858,-0.7366 -1.397,-1.981199 l -6.35,-11.049 q -0.7874,-1.2954 -0.7874,-2.7432 0,-1.2954 0.9144,-2.413 0.9398,-1.1176 2.8448,-1.1176 1.4986,0 2.3622,0.8382 0.889,0.8382 1.8034,2.7178 l 4.7752,9.398 4.826,-9.4742 q 0.889,-1.8288 1.8542,-2.6416 0.9652,-0.8382 2.4384,-0.8382 1.8796,0 2.7178,1.0922 0.8382,1.0922 0.8382,2.3876 0,1.4478 -0.8128,2.794 l -6.35,11.049 q -0.3556,0.5842 -0.6858,1.066799 -0.3048,0.4572 -0.6858,0.8636 v 8.3312 q 0,4.6482 -4.1402,4.6482 z"
         style="-inkscape-font-specification:'Sono Sans';fill:#eeeeee"
         id="path1266" />
    </g>
    <path
       id="rect21892"
       style="fill:none;stroke:#eeeeee;stroke-width:7.33106;stroke-linecap:butt;stroke-linejoin:round;stroke-miterlimit:4;stroke-dasharray:none;stroke-opacity:1;paint-order:normal"
       d="m 40.699972,28.80789 c -1.879579,0.09434 -2.652097,1.694459 -3.447169,2.857422 -4.467181,6.427953 -9.008256,12.824528 -13.379088,19.295217 -0.694557,1.812209 1.849434,3.472206 3.898781,2.966502 1.540732,-8.44e-4 3.08146,3e-6 4.622179,0.0059 0.05864,4.279416 -0.147191,8.580908 0.153365,12.863282 0.461581,1.505467 2.630811,1.864932 4.247456,1.721318 3.491346,-0.121823 7.014009,0.1786 10.485009,-0.20374 1.772784,-0.587838 1.974149,-2.394582 1.797907,-3.757813 -0.0043,-3.544277 -0.0017,-7.088549 0.01184,-10.632812 2.276475,-0.05034 4.595052,0.166241 6.858831,-0.152819 1.845264,-0.207348 2.403644,-2.172508 1.68949,-3.403822 C 57.037016,49.46405 56.27577,48.640482 55.70888,47.712374 51.407525,41.592003 47.24078,35.400214 42.785736,29.358672 42.248494,28.902056 41.444032,28.76192 40.699972,28.80789 Z" />
    <rect
       style="fill:none;fill-opacity:1;fill-rule:evenodd;stroke:#eeeeee;stroke-width:8;stroke-linejoin:round;stroke-miterlimit:4;stroke-dasharray:none;stroke-opacity:1"
       id="rect1254"
       width="243.256"
       height="81.771629"
       x="6.3718634"
       y="7.6505895"
       ry="26.550287" />
    <path
       id="path1268"
       style="fill:none;stroke:#eeeeee;stroke-width:7.33106;stroke-linecap:butt;stroke-linejoin:round;stroke-miterlimit:4;stroke-dasharray:none;stroke-opacity:1;paint-order:normal"
       d="m 40.699972,28.80789 c -1.879579,0.09434 -2.652097,1.694459 -3.447169,2.857422 -4.467181,6.427953 -9.008256,12.824528 -13.379088,19.295217 -0.694557,1.812209 1.849434,3.472206 3.898781,2.966502 1.540732,-8.44e-4 3.08146,3e-6 4.622179,0.0059 0.05864,4.279416 -0.147191,8.580908 0.153365,12.863282 0.461581,1.505467 2.630811,1.864932 4.247456,1.721318 3.491346,-0.121823 7.014009,0.1786 10.485009,-0.20374 1.772784,-0.587838 1.974149,-2.394582 1.797907,-3.757813 -0.0043,-3.544277 -0.0017,-7.088549 0.01184,-10.632812 2.276475,-0.05034 4.595052,0.166241 6.858831,-0.152819 1.845264,-0.207348 2.403644,-2.172508 1.68949,-3.403822 C 57.037016,49.46405 56.27577,48.640482 55.70888,47.712374 51.407525,41.592003 47.24078,35.400214 42.785736,29.358672 42.248494,28.902056 41.444032,28.76192 40.699972,28.80789 Z" />
  </g>
</svg>
